<svg xmlns="http://www.w3.org/2000/svg" viewBox="0 0 63.98 96.25"><defs><style>.cls-1{fill:#fff;}</style></defs><title>Fichier 1</title><g id="Calque_2" data-name="Calque 2"><g id="Calque_1-2" data-name="Calque 1"><path class="cls-1" d="M31.88,96.25c.59-.29,1.16-.39,1.44-.73,13.81-16.87,26-34.63,30.06-56.67,2.47-13.4-2.84-26.46-14-33.4-11.51-7.19-23.52-7.37-34.85.06C2.68,13.31-1.78,24.93.63,38.88c3.79,21.93,16,39.54,29.68,56.29A6.82,6.82,0,0,0,31.88,96.25Z"/><path d="M31.88,96.25a6.82,6.82,0,0,1-1.57-1.08C16.6,78.42,4.42,60.81.63,38.88c-2.41-14,2.05-25.57,14-33.37,11.33-7.43,23.34-7.25,34.85-.06,11.11,6.94,16.42,20,14,33.4-4.06,22-16.25,39.8-30.06,56.67C33,95.86,32.47,96,31.88,96.25Zm-11.83-62a12.11,12.11,0,0,0,12.07,12A12.16,12.16,0,0,0,44,34.47a12,12,0,1,0-23.92-.26Z"/><path class="cls-1" d="M20.05,34.21A12,12,0,1,1,44,34.47,12.16,12.16,0,0,1,32.12,46.21,12.11,12.11,0,0,1,20.05,34.21Z"/></g></g></svg>